<svg xmlns="http://www.w3.org/2000/svg" viewBox="0 0 25 25" width="25" height="25">
	<style>
		tspan { white-space:pre }
		.shp0 { fill: #ffffff } 
	</style>
	<g id="Group 7">
		<g id="Group 8">
			<path id="Shape 12" class="shp0" d="M14.52 24.84C14.41 24.85 14.31 24.87 14.2 24.88C14.31 24.87 14.41 24.85 14.52 24.84L14.52 24.84ZM14.52 24.84M14.77 24.79C14.72 24.8 14.67 24.81 14.62 24.82C14.67 24.81 14.72 24.8 14.77 24.79L14.77 24.79ZM14.77 24.79M13.92 24.92C13.8 24.93 13.68 24.94 13.56 24.95C13.68 24.94 13.8 24.93 13.92 24.92L13.92 24.92ZM13.92 24.92M14.16 24.89C14.1 24.9 14.05 24.9 13.99 24.91C14.05 24.9 14.1 24.9 14.16 24.89L14.16 24.89ZM14.16 24.89M15.11 24.73C15.06 24.74 15.02 24.75 14.97 24.75C15.02 24.75 15.06 24.74 15.11 24.73L15.11 24.73ZM15.11 24.73M15.95 24.52C15.91 24.53 15.88 24.54 15.84 24.55C15.88 24.54 15.91 24.53 15.95 24.52L15.95 24.52ZM15.95 24.52M15.69 24.59C15.66 24.6 15.62 24.61 15.58 24.62C15.62 24.61 15.66 24.6 15.69 24.59L15.69 24.59ZM15.69 24.59M15.36 24.67C15.32 24.68 15.28 24.69 15.24 24.7C15.28 24.69 15.32 24.68 15.36 24.67L15.36 24.67ZM15.36 24.67M13.55 24.96C13.49 24.96 13.42 24.97 13.35 24.97C13.42 24.97 13.49 24.96 13.55 24.96L13.55 24.96ZM13.55 24.96M25 12.5C25 5.6 19.4 0 12.5 0C5.6 0 0 5.6 0 12.5C0 19.4 5.6 25 12.5 25C12.57 25 12.65 25 12.72 25L12.72 15.27L10.03 15.27L10.03 12.14L12.72 12.14L12.72 9.83C12.72 7.16 14.35 5.71 16.73 5.71C17.87 5.71 18.85 5.79 19.14 5.83L19.14 8.62L17.5 8.62C16.2 8.62 15.95 9.24 15.95 10.14L15.95 12.14L19.05 12.14L18.65 15.27L15.95 15.27L15.95 24.52C21.18 23.02 25 18.21 25 12.5L25 12.5ZM25 12.5M13.33 24.97C13.2 24.98 13.07 24.99 12.93 24.99C13.07 24.99 13.2 24.98 13.33 24.97L13.33 24.97ZM13.33 24.97M12.93 24.99C12.86 24.99 12.79 25 12.72 25C12.79 25 12.86 24.99 12.93 24.99L12.93 24.99ZM12.93 24.99" />
		</g>
	</g>
</svg>