<svg xmlns="http://www.w3.org/2000/svg" viewBox="0 0 25 25" width="25" height="25">
	<style>
		tspan { white-space:pre }
		.shp0 { fill: #ffffff } 
	</style>
	<g id="Group 7">
		<g id="Group 8">
			<path id="Shape 14" class="shp0" d="M14.89 12.5C14.89 13.82 13.82 14.89 12.5 14.89C11.18 14.89 10.11 13.82 10.11 12.5C10.11 11.18 11.18 10.11 12.5 10.11C13.82 10.11 14.89 11.18 14.89 12.5L14.89 12.5ZM14.89 12.5M18.1 8.27C17.98 7.95 17.8 7.67 17.56 7.44C17.33 7.2 17.04 7.02 16.73 6.9C16.48 6.81 16.1 6.69 15.4 6.66C14.64 6.62 14.42 6.62 12.5 6.62C10.58 6.62 10.36 6.62 9.6 6.66C8.9 6.69 8.52 6.81 8.27 6.9C7.95 7.02 7.67 7.2 7.44 7.44C7.2 7.67 7.02 7.95 6.9 8.27C6.81 8.52 6.69 8.9 6.66 9.6C6.62 10.36 6.62 10.58 6.62 12.5C6.62 14.42 6.62 14.64 6.66 15.4C6.69 16.1 6.81 16.48 6.9 16.73C7.02 17.04 7.2 17.33 7.44 17.56C7.67 17.8 7.95 17.98 8.27 18.1C8.52 18.19 8.9 18.31 9.6 18.34C10.36 18.38 10.58 18.38 12.5 18.38C14.42 18.38 14.64 18.38 15.4 18.34C16.1 18.31 16.48 18.19 16.73 18.1C17.36 17.85 17.85 17.36 18.1 16.73C18.19 16.48 18.31 16.1 18.34 15.4C18.38 14.64 18.38 14.42 18.38 12.5C18.38 10.58 18.38 10.36 18.34 9.6C18.31 8.9 18.19 8.52 18.1 8.27L18.1 8.27ZM12.5 16.18C10.46 16.18 8.81 14.54 8.81 12.5C8.81 10.46 10.46 8.81 12.5 8.81C14.54 8.81 16.19 10.46 16.19 12.5C16.19 14.54 14.54 16.18 12.5 16.18L12.5 16.18ZM16.33 9.53C15.86 9.53 15.47 9.14 15.47 8.67C15.47 8.19 15.86 7.81 16.33 7.81C16.81 7.81 17.19 8.19 17.19 8.67C17.19 9.14 16.81 9.53 16.33 9.53L16.33 9.53ZM16.33 9.53M12.5 0C5.6 0 0 5.6 0 12.5C0 19.4 5.6 25 12.5 25C19.4 25 25 19.4 25 12.5C25 5.6 19.4 0 12.5 0L12.5 0ZM19.63 15.46C19.6 16.22 19.48 16.74 19.3 17.2C18.93 18.17 18.17 18.93 17.2 19.3C16.75 19.48 16.22 19.6 15.46 19.63C14.69 19.67 14.45 19.68 12.5 19.68C10.55 19.68 10.31 19.67 9.54 19.63C8.78 19.6 8.25 19.48 7.8 19.3C7.32 19.12 6.89 18.84 6.53 18.47C6.16 18.11 5.88 17.68 5.7 17.2C5.52 16.74 5.4 16.22 5.37 15.46C5.33 14.69 5.32 14.45 5.32 12.5C5.32 10.55 5.33 10.31 5.37 9.54C5.4 8.78 5.52 8.25 5.7 7.8C5.88 7.32 6.16 6.89 6.53 6.53C6.89 6.16 7.32 5.88 7.8 5.7C8.25 5.52 8.78 5.4 9.54 5.37C10.31 5.33 10.55 5.32 12.5 5.32C14.45 5.32 14.69 5.33 15.46 5.37C16.22 5.4 16.74 5.52 17.2 5.7C17.68 5.88 18.11 6.16 18.47 6.53C18.84 6.89 19.12 7.32 19.3 7.8C19.48 8.25 19.6 8.78 19.63 9.54C19.67 10.31 19.68 10.55 19.68 12.5C19.68 14.45 19.67 14.69 19.63 15.46L19.63 15.46ZM19.63 15.46" />
		</g>
	</g>
</svg>