<svg xmlns="http://www.w3.org/2000/svg" viewBox="0 0 47 51" width="47" height="51">
	<style>
		tspan { white-space:pre }
		.shp0 { fill: #f8a521 } 
	</style>
	<g id="Group 5">
		<path id="Shape 13" class="shp0" d="M46.03 48.17L43.9 48.17L43.9 17.07C43.9 15.62 42.73 14.45 41.3 14.45L36.55 14.45C35.11 14.45 33.94 15.62 33.94 17.07L33.94 48.17L28.54 48.17L28.54 31.16C28.54 29.71 27.37 28.54 25.93 28.54L21.18 28.54C19.74 28.54 18.57 29.71 18.57 31.16L18.57 48.17L13.18 48.17L13.18 39.36C13.18 37.91 12.01 36.74 10.57 36.74L5.82 36.74C4.38 36.74 3.21 37.92 3.21 39.36L3.21 48.17L0.97 48.17C0.43 48.17 0 48.61 0 49.15C0 49.69 0.43 50.12 0.97 50.12L46.03 50.12C46.57 50.12 47 49.69 47 49.15C47 48.61 46.57 48.17 46.03 48.17ZM5.15 48.17L5.15 39.36C5.15 38.99 5.45 38.69 5.82 38.69L10.57 38.69C10.94 38.69 11.24 38.99 11.24 39.36L11.24 48.17L5.15 48.17ZM20.51 48.17L20.51 31.16C20.51 30.79 20.81 30.49 21.18 30.49L25.93 30.49C26.3 30.49 26.6 30.79 26.6 31.16L26.6 48.17L20.51 48.17ZM35.88 48.17L35.88 17.07C35.88 16.7 36.18 16.4 36.55 16.4L41.3 16.4C41.67 16.4 41.97 16.7 41.97 17.07L41.97 48.17L35.88 48.17ZM9.28 27.31C9.53 27.31 9.78 27.22 9.97 27.03L26.71 10.16L30.32 13.8C30.7 14.18 31.32 14.18 31.7 13.8L41.97 3.46L41.97 6.76C41.97 7.3 42.4 7.74 42.93 7.74C43.47 7.74 43.9 7.3 43.9 6.76L43.9 1.2C43.9 1.18 43.9 1.17 43.9 1.15C43.92 0.88 43.82 0.61 43.62 0.41C43.42 0.21 43.15 0.11 42.88 0.13C42.87 0.13 42.85 0.12 42.84 0.12L36.97 0.12C36.44 0.12 36 0.56 36 1.1C36 1.64 36.44 2.08 36.97 2.08L40.59 2.08L31.01 11.73L27.4 8.09C27.21 7.91 26.97 7.8 26.71 7.8C26.45 7.8 26.21 7.91 26.02 8.09L8.6 25.65C8.22 26.03 8.22 26.65 8.6 27.03C8.79 27.22 9.03 27.31 9.28 27.31ZM6.01 28.77C6.55 28.77 6.98 29.21 6.98 29.74C6.98 30.28 6.55 30.72 6.01 30.72C5.48 30.72 5.05 30.28 5.05 29.74C5.05 29.21 5.48 28.77 6.01 28.77Z" />
	</g>
</svg>