<svg xmlns="http://www.w3.org/2000/svg" viewBox="0 0 48 51" width="48" height="51">
	<style>
		tspan { white-space:pre }
		.shp0 { fill: #f8a521 } 
	</style>
	<g id="Group 5 copy">
		<path id="Shape 12" class="shp0" d="M42.64 15.54L40.95 15.54L40.95 1.51C40.95 1.13 40.73 0.78 40.39 0.62C40.05 0.46 39.65 0.52 39.37 0.77L36.84 3.02C35.52 4.2 34.09 5.28 32.6 6.25C26.93 9.93 20.38 11.88 13.65 11.88L9 11.88C4.31 11.88 0.5 15.75 0.5 20.51C0.5 25.28 4.31 29.15 9 29.15L11.23 29.15L11.23 49.55C11.23 50.09 11.65 50.53 12.18 50.53L17.66 50.53C19.55 50.53 21.09 48.96 21.09 47.03L21.09 42.94L22.54 42.94C24.43 42.94 25.97 41.36 25.97 39.42C25.97 37.49 24.43 35.92 22.54 35.92L21.09 35.92L21.09 29.96C25.16 30.85 29.05 32.47 32.6 34.77C34.09 35.74 35.52 36.83 36.84 38L39.37 40.25C39.55 40.41 39.77 40.49 40 40.49C40.13 40.49 40.27 40.46 40.39 40.41C40.73 40.25 40.95 39.9 40.95 39.52L40.95 25.49L42.64 25.49C45.32 25.49 47.5 23.26 47.5 20.51C47.5 17.77 45.32 15.54 42.64 15.54L42.64 15.54ZM2.41 20.51C2.41 16.83 5.36 13.83 9 13.83L11.23 13.83L11.23 27.2L9 27.2C5.36 27.2 2.41 24.2 2.41 20.51L2.41 20.51ZM22.54 37.87C23.37 37.87 24.06 38.57 24.06 39.43C24.06 40.29 23.37 40.98 22.54 40.98L21.09 40.98L21.09 37.87L22.54 37.87ZM19.18 47.03C19.18 47.88 18.5 48.58 17.66 48.58L13.14 48.58L13.14 29.15L13.65 29.15C15.51 29.15 17.36 29.3 19.18 29.59L19.18 47.03ZM39.04 37.37L38.1 36.53C36.83 35.41 35.48 34.36 34.07 33.42L34.07 25.42C34.07 24.88 33.64 24.45 33.11 24.45C32.58 24.45 32.16 24.88 32.16 25.42L32.16 32.22C26.53 28.93 20.17 27.2 13.65 27.2L13.14 27.2L13.14 13.83L13.65 13.83C20.17 13.83 26.53 12.1 32.16 8.81L32.16 16.59C32.16 17.13 32.58 17.57 33.11 17.57C33.64 17.57 34.07 17.13 34.07 16.59L34.07 7.61C35.48 6.66 36.83 5.62 38.1 4.5L39.04 3.65L39.04 37.37ZM42.64 23.54L40.95 23.54L40.95 17.49L42.64 17.49C44.27 17.49 45.59 18.85 45.59 20.52C45.59 22.18 44.27 23.54 42.64 23.54L42.64 23.54ZM42.64 23.54M33.99 20.65C33.84 20.27 33.46 20.03 33.06 20.05C32.66 20.07 32.32 20.35 32.2 20.74C32.08 21.13 32.22 21.57 32.54 21.81C32.86 22.05 33.29 22.06 33.62 21.85C34.01 21.61 34.17 21.09 33.99 20.65L33.99 20.65ZM33.99 20.65" />
	</g>
</svg>