<svg xmlns="http://www.w3.org/2000/svg" viewBox="0 0 22 30" width="22" height="30">
	<style>
		tspan { white-space:pre }
		.shp0 { fill: #ffffff } 
	</style>
	<g id="Group 7">
		<path id="Shape 17" class="shp0" d="M18.03 3.22C18.03 3.55 17.77 3.81 17.45 3.81C17.13 3.81 16.87 3.55 16.87 3.22C16.87 2.9 17.13 2.64 17.45 2.64C17.77 2.64 18.03 2.9 18.03 3.22L18.03 3.22ZM18.03 3.22M10.97 2.34C6.82 2.34 3.44 5.76 3.44 9.96C3.44 14.16 6.82 17.58 10.97 17.58C15.12 17.58 18.5 14.16 18.5 9.96C18.5 5.76 15.12 2.34 10.97 2.34L10.97 2.34ZM10.97 16.41C7.46 16.41 4.6 13.51 4.6 9.96C4.6 6.41 7.46 3.52 10.97 3.52C14.48 3.52 17.34 6.41 17.34 9.96C17.34 13.51 14.48 16.41 10.97 16.41L10.97 16.41ZM10.97 16.41M21.62 29.3C22.2 28.52 22.04 27.42 21.27 26.83L16.64 23.32C16.03 22.85 15.17 22.85 14.56 23.32L10.97 26.04L7.38 23.32C6.77 22.85 5.91 22.85 5.3 23.32L0.66 26.83C-0.1 27.42 -0.26 28.52 0.32 29.3C0.89 30.07 1.98 30.23 2.75 29.65L6.34 26.92L9.93 29.65C10.54 30.11 11.4 30.11 12.01 29.65L15.6 26.92L19.19 29.65C19.97 30.24 21.05 30.06 21.62 29.3L21.62 29.3ZM15.95 25.72C15.74 25.57 15.46 25.57 15.25 25.72L11.32 28.71C11.11 28.86 10.83 28.86 10.62 28.71L6.68 25.72C6.48 25.57 6.2 25.57 5.99 25.72L2.05 28.71C1.8 28.91 1.43 28.85 1.24 28.59C1.05 28.33 1.1 27.97 1.36 27.77L5.99 24.26C6.19 24.1 6.48 24.1 6.68 24.26L10.62 27.24C10.83 27.4 11.11 27.4 11.32 27.24L15.25 24.26C15.46 24.1 15.74 24.1 15.95 24.26L20.58 27.77C20.83 27.96 20.89 28.33 20.7 28.59C20.5 28.85 20.14 28.9 19.89 28.71L15.95 25.72ZM15.95 25.72M15.61 1.17C14.19 0.41 12.59 0 10.97 0C5.54 0 1.13 4.47 1.13 9.96C1.13 12.73 2.25 15.33 4.22 17.21L10.57 23.28C10.68 23.38 10.83 23.44 10.97 23.44C11.11 23.44 11.25 23.38 11.37 23.28L17.72 17.21C19.68 15.33 20.81 12.74 20.81 9.96C20.81 8.23 20.37 6.53 19.53 5.04C19.37 4.75 19.01 4.66 18.74 4.82C18.46 4.98 18.36 5.33 18.52 5.62C19.26 6.93 19.65 8.43 19.65 9.96C19.65 12.4 18.69 14.68 16.93 16.35L10.97 22.04L5.01 16.35C3.25 14.68 2.28 12.4 2.28 9.96C2.28 5.11 6.18 1.17 10.97 1.17C12.4 1.17 13.81 1.53 15.06 2.21C15.34 2.36 15.69 2.25 15.84 1.97C16 1.68 15.89 1.33 15.61 1.17L15.61 1.17ZM15.61 1.17" />
	</g>
</svg>