<svg xmlns="http://www.w3.org/2000/svg" viewBox="0 0 50 50" width="50" height="50">
	<style>
		tspan { white-space:pre }
		.shp0 { fill: #f8a521 } 
	</style>
	<g id="Group 5 copy 3">
		<path id="Shape 14" class="shp0" d="M47.5 15C48.88 15 50 13.88 50 12.5L50 2.5C50 1.12 48.88 0 47.5 0L2.5 0C1.12 0 0 1.12 0 2.5L0 12.5C0 13.88 1.12 15 2.5 15L5 15L5 17.5L2.5 17.5C1.12 17.5 0 18.62 0 20L0 30C0 31.38 1.12 32.5 2.5 32.5L5 32.5L5 35L2.5 35C1.12 35 0 36.12 0 37.5L0 47.5C0 48.88 1.12 50 2.5 50L47.5 50C48.88 50 50 48.88 50 47.5L50 37.5C50 36.12 48.88 35 47.5 35L45 35L45 32.5L47.5 32.5C48.88 32.5 50 31.38 50 30L50 20C50 18.62 48.88 17.5 47.5 17.5L45 17.5L45 15L47.5 15ZM1.67 12.5L1.67 2.5C1.67 2.04 2.04 1.67 2.5 1.67L47.5 1.67C47.96 1.67 48.33 2.04 48.33 2.5L48.33 12.5C48.33 12.96 47.96 13.33 47.5 13.33L2.5 13.33C2.04 13.33 1.67 12.96 1.67 12.5ZM10 17.5L10 15L40 15L40 17.5L10 17.5ZM6.67 15L8.33 15L8.33 17.5L6.67 17.5L6.67 15ZM6.67 32.5L8.33 32.5L8.33 35L6.67 35L6.67 32.5ZM40 32.5L40 35L10 35L10 32.5L40 32.5ZM48.33 37.5L48.33 47.5C48.33 47.96 47.96 48.33 47.5 48.33L2.5 48.33C2.04 48.33 1.67 47.96 1.67 47.5L1.67 37.5C1.67 37.04 2.04 36.67 2.5 36.67L47.5 36.67C47.96 36.67 48.33 37.04 48.33 37.5ZM43.33 35L41.67 35L41.67 32.5L43.33 32.5L43.33 35ZM48.33 20L48.33 30C48.33 30.46 47.96 30.83 47.5 30.83L2.5 30.83C2.04 30.83 1.67 30.46 1.67 30L1.67 20C1.67 19.54 2.04 19.17 2.5 19.17L47.5 19.17C47.96 19.17 48.33 19.54 48.33 20ZM43.33 17.5L41.67 17.5L41.67 15L43.33 15L43.33 17.5ZM9.85 8.33L26.67 8.33C27.13 8.33 27.5 7.96 27.5 7.5C27.5 7.04 27.13 6.67 26.67 6.67L9.85 6.67C9.39 5.36 7.96 4.68 6.66 5.14C5.35 5.6 4.67 7.03 5.13 8.33C5.59 9.63 7.02 10.32 8.32 9.86C9.03 9.61 9.59 9.05 9.85 8.33ZM6.67 7.5C6.67 7.04 7.04 6.67 7.5 6.67C7.96 6.67 8.33 7.04 8.33 7.5C8.33 7.96 7.96 8.33 7.5 8.33C7.04 8.33 6.67 7.96 6.67 7.5ZM36.67 3.33L38.33 3.33L38.33 5L36.67 5L36.67 3.33ZM40 3.33L41.67 3.33L41.67 5L40 5L40 3.33ZM43.33 3.33L45 3.33L45 5L43.33 5L43.33 3.33ZM33.33 3.33L35 3.33L35 5L33.33 5L33.33 3.33ZM30 3.33L31.67 3.33L31.67 5L30 5L30 3.33ZM36.67 6.67L38.33 6.67L38.33 8.33L36.67 8.33L36.67 6.67ZM40 6.67L41.67 6.67L41.67 8.33L40 8.33L40 6.67ZM43.33 6.67L45 6.67L45 8.33L43.33 8.33L43.33 6.67ZM33.33 6.67L35 6.67L35 8.33L33.33 8.33L33.33 6.67ZM30 6.67L31.67 6.67L31.67 8.33L30 8.33L30 6.67ZM36.67 10L38.33 10L38.33 11.67L36.67 11.67L36.67 10ZM40 10L41.67 10L41.67 11.67L40 11.67L40 10ZM43.33 10L45 10L45 11.67L43.33 11.67L43.33 10ZM33.33 10L35 10L35 11.67L33.33 11.67L33.33 10ZM30 10L31.67 10L31.67 11.67L30 11.67L30 10ZM26.67 24.17L9.85 24.17C9.39 22.86 7.96 22.18 6.66 22.64C5.35 23.1 4.67 24.53 5.13 25.83C5.59 27.13 7.02 27.82 8.32 27.36C9.03 27.11 9.59 26.55 9.85 25.83L26.67 25.83C27.13 25.83 27.5 25.46 27.5 25C27.5 24.54 27.13 24.17 26.67 24.17ZM7.5 25.83C7.04 25.83 6.67 25.46 6.67 25C6.67 24.54 7.04 24.17 7.5 24.17C7.96 24.17 8.33 24.54 8.33 25C8.33 25.46 7.96 25.83 7.5 25.83ZM36.67 20.83L38.33 20.83L38.33 22.5L36.67 22.5L36.67 20.83ZM40 20.83L41.67 20.83L41.67 22.5L40 22.5L40 20.83ZM43.33 20.83L45 20.83L45 22.5L43.33 22.5L43.33 20.83ZM33.33 20.83L35 20.83L35 22.5L33.33 22.5L33.33 20.83ZM30 20.83L31.67 20.83L31.67 22.5L30 22.5L30 20.83ZM36.67 24.17L38.33 24.17L38.33 25.83L36.67 25.83L36.67 24.17ZM40 24.17L41.67 24.17L41.67 25.83L40 25.83L40 24.17ZM43.33 24.17L45 24.17L45 25.83L43.33 25.83L43.33 24.17ZM33.33 24.17L35 24.17L35 25.83L33.33 25.83L33.33 24.17ZM30 24.17L31.67 24.17L31.67 25.83L30 25.83L30 24.17ZM36.67 27.5L38.33 27.5L38.33 29.17L36.67 29.17L36.67 27.5ZM40 27.5L41.67 27.5L41.67 29.17L40 29.17L40 27.5ZM43.33 27.5L45 27.5L45 29.17L43.33 29.17L43.33 27.5ZM33.33 27.5L35 27.5L35 29.17L33.33 29.17L33.33 27.5ZM30 27.5L31.67 27.5L31.67 29.17L30 29.17L30 27.5ZM26.67 41.67L9.85 41.67C9.39 40.36 7.96 39.68 6.66 40.14C5.35 40.6 4.67 42.03 5.13 43.33C5.59 44.63 7.02 45.32 8.32 44.86C9.03 44.61 9.59 44.05 9.85 43.33L26.67 43.33C27.13 43.33 27.5 42.96 27.5 42.5C27.5 42.04 27.13 41.67 26.67 41.67ZM7.5 43.33C7.04 43.33 6.67 42.96 6.67 42.5C6.67 42.04 7.04 41.67 7.5 41.67C7.96 41.67 8.33 42.04 8.33 42.5C8.33 42.96 7.96 43.33 7.5 43.33ZM36.67 38.33L38.33 38.33L38.33 40L36.67 40L36.67 38.33ZM40 38.33L41.67 38.33L41.67 40L40 40L40 38.33ZM43.33 38.33L45 38.33L45 40L43.33 40L43.33 38.33ZM33.33 38.33L35 38.33L35 40L33.33 40L33.33 38.33ZM30 38.33L31.67 38.33L31.67 40L30 40L30 38.33ZM36.67 41.67L38.33 41.67L38.33 43.33L36.67 43.33L36.67 41.67ZM40 41.67L41.67 41.67L41.67 43.33L40 43.33L40 41.67ZM43.33 41.67L45 41.67L45 43.33L43.33 43.33L43.33 41.67ZM33.33 41.67L35 41.67L35 43.33L33.33 43.33L33.33 41.67ZM30 41.67L31.67 41.67L31.67 43.33L30 43.33L30 41.67ZM36.67 45L38.33 45L38.33 46.67L36.67 46.67L36.67 45ZM40 45L41.67 45L41.67 46.67L40 46.67L40 45ZM43.33 45L45 45L45 46.67L43.33 46.67L43.33 45ZM33.33 45L35 45L35 46.67L33.33 46.67L33.33 45ZM30 45L31.67 45L31.67 46.67L30 46.67L30 45Z" />
	</g>
</svg>