<svg xmlns="http://www.w3.org/2000/svg" viewBox="0 0 50 50" width="50" height="50">
	<style>
		tspan { white-space:pre }
		.shp0 { fill: #f8a521 } 
	</style>
	<g id="Group 5 copy 2">
		<path id="Shape 11" class="shp0" d="M45.3 9.39L45.3 0L7 0L7 1.47L43.84 1.47L43.84 4.7L1.47 4.7L1.47 1.47L5.43 1.47L5.43 0L0 0L0 40.61L4.7 40.61L4.7 50L50 50L50 42.22L48.53 42.22L48.53 48.53L6.16 48.53L6.16 15.56L48.53 15.56L48.53 40.66L50 40.66L50 9.39L45.3 9.39ZM1.47 39.14L1.47 6.16L43.84 6.16L43.84 9.39L4.7 9.39L4.7 14.09L4.7 15.56L4.7 39.14L1.47 39.14ZM6.16 14.09L6.16 10.86L48.53 10.86L48.53 14.09L6.16 14.09ZM3.86 2.35L5.43 2.35L5.43 3.82L3.86 3.82L3.86 2.35ZM7 2.35L8.56 2.35L8.56 3.82L7 3.82L7 2.35ZM10.13 2.35L11.69 2.35L11.69 3.82L10.13 3.82L10.13 2.35ZM39.87 2.35L41.44 2.35L41.44 3.82L39.87 3.82L39.87 2.35ZM46.87 21.87L45.4 21.87L45.4 18.69L42.22 18.69L42.22 17.22L46.87 17.22L46.87 21.87ZM12.48 46.87L7.83 46.87L7.83 42.22L9.3 42.22L9.3 45.4L12.48 45.4L12.48 46.87ZM45.4 28.91L46.87 28.91L46.87 30.48L45.4 30.48L45.4 28.91ZM45.4 23.43L46.87 23.43L46.87 27.35L45.4 27.35L45.4 23.43ZM7.83 33.61L9.3 33.61L9.3 35.18L7.83 35.18L7.83 33.61ZM7.83 36.74L9.3 36.74L9.3 40.66L7.83 40.66L7.83 36.74ZM8.56 11.74L10.13 11.74L10.13 13.21L8.56 13.21L8.56 11.74ZM11.69 11.74L13.26 11.74L13.26 13.21L11.69 13.21L11.69 11.74ZM14.82 11.74L16.39 11.74L16.39 13.21L14.82 13.21L14.82 11.74ZM44.57 11.74L46.13 11.74L46.13 13.21L44.57 13.21L44.57 11.74ZM33.92 42.71L31.7 40.46L32.54 37.41L35.6 36.61L37.82 38.86L36.98 41.91L33.92 42.71ZM33.34 40.03L34.37 41.08L35.79 40.71L36.18 39.29L35.15 38.25L33.73 38.62L33.34 40.03ZM34.8 34.17C34.78 34.17 34.77 34.17 34.76 34.17C34.3 34.17 33.84 34.23 33.4 34.34L30.76 31.66L34.44 28.04L36.84 27.57L40.91 23.55L36.06 18.64L31.99 22.65L31.49 25.06L27.82 28.68L25.17 26.01C25.66 24.18 25.2 22.16 23.78 20.72C22.3 19.22 20.05 18.7 18.06 19.39L16.96 19.78L19.47 22.32L18.85 23.55L17.61 24.16L15.1 21.61L14.71 22.7C13.99 24.69 14.48 26.94 15.96 28.44C16.99 29.49 18.37 30.07 19.84 30.08C19.85 30.08 19.86 30.08 19.87 30.08C20.34 30.08 20.79 30.02 21.23 29.91L22.92 31.61L14.03 40.39L14.02 41.96L17.31 45.3L18.88 45.31L27.77 36.53L29.45 38.24C29.34 38.69 29.27 39.15 29.27 39.63C29.26 41.1 29.82 42.48 30.85 43.52C31.93 44.61 33.34 45.16 34.76 45.16C36.16 45.16 37.55 44.63 38.62 43.57C40.78 41.44 40.8 37.96 38.67 35.8C37.64 34.76 36.26 34.18 34.8 34.17ZM33.34 23.39L36.04 20.71L38.83 23.54L36.13 26.21L34.32 26.56L32.97 25.19L33.34 23.39ZM32.16 26.46L33.04 27.35L29.73 30.62L28.85 29.73L32.16 26.46ZM19.87 28.61C19.86 28.61 19.85 28.61 19.84 28.61C18.77 28.6 17.76 28.18 17.01 27.41C16.22 26.62 15.82 25.54 15.85 24.46L17.31 25.94L19.94 24.65L21.26 22.04L19.8 20.56C20.88 20.54 21.95 20.96 22.74 21.75C24.3 23.33 24.28 25.89 22.7 27.45C21.94 28.2 20.94 28.61 19.87 28.61ZM26.56 35.66L18.28 43.83L17.93 43.83L17.23 43.12L22.99 37.42L21.96 36.38L16.19 42.07L15.49 41.36L15.49 41.01L23.77 32.83L24.12 32.84L26.56 35.31L26.56 35.66ZM28.03 34.71L28.03 34.71L24.74 31.37L24.74 31.37L22.69 29.3C23.06 29.07 23.41 28.8 23.73 28.49C24.05 28.17 24.32 27.83 24.55 27.46L31.94 34.95C31.57 35.17 31.22 35.44 30.9 35.75C30.58 36.07 30.31 36.41 30.08 36.78L28.03 34.71ZM37.59 42.53C36.01 44.09 33.46 44.07 31.9 42.49C31.14 41.73 30.73 40.71 30.74 39.64C30.74 38.56 31.17 37.55 31.93 36.8C32.72 36.03 33.74 35.64 34.76 35.64C35.8 35.64 36.84 36.04 37.63 36.83C39.19 38.41 39.17 40.97 37.59 42.53Z" />
	</g>
</svg>