<svg xmlns="http://www.w3.org/2000/svg" viewBox="0 0 30 31" width="30" height="31">
	<style>
		tspan { white-space:pre }
		.shp0 { fill: #ffffff } 
	</style>
	<g id="Group 7">
		<path id="Shape 16" class="shp0" d="M29.7 0.56C29.52 0.46 29.3 0.46 29.12 0.57L18.38 6.92C18.1 7.09 18.01 7.45 18.17 7.72C18.34 8 18.7 8.1 18.97 7.93L26.68 3.37L12.33 18.27L5.19 16.08L14.51 10.57C14.78 10.41 14.88 10.05 14.71 9.77C14.55 9.49 14.19 9.4 13.91 9.56L3.45 15.75C3.25 15.87 3.14 16.09 3.17 16.33C3.19 16.56 3.36 16.75 3.58 16.82L12.1 19.43L15.86 26.27C15.87 26.28 15.87 26.29 15.87 26.29C15.94 26.4 16.03 26.48 16.15 26.53C16.22 26.56 16.3 26.58 16.38 26.58C16.53 26.58 16.67 26.52 16.78 26.41L21.11 22.18L29.24 24.67C29.3 24.69 29.36 24.7 29.41 24.7C29.54 24.7 29.66 24.66 29.76 24.58C29.91 24.47 30 24.3 30 24.11L30 1.07C30 0.86 29.89 0.67 29.7 0.56ZM24.58 7.24L15.89 19.79C15.83 19.88 15.79 20 15.79 20.12L15.79 23.71L13.22 19.03L24.58 7.24ZM16.96 24.6L16.96 20.91L19.83 21.79L16.96 24.6ZM17.31 19.79L28.83 3.17L28.83 23.32L17.31 19.79ZM9.63 20.86C9.4 20.63 9.03 20.63 8.8 20.86L3.33 26.33C3.11 26.56 3.11 26.93 3.33 27.16C3.45 27.28 3.6 27.33 3.75 27.33C3.9 27.33 4.05 27.28 4.16 27.16L9.63 21.69C9.86 21.46 9.86 21.09 9.63 20.86ZM1.52 28.15L0.17 29.5C-0.06 29.73 -0.06 30.1 0.17 30.33C0.28 30.44 0.43 30.5 0.58 30.5C0.73 30.5 0.88 30.44 1 30.33L2.35 28.98C2.58 28.75 2.58 28.38 2.35 28.15C2.12 27.92 1.75 27.92 1.52 28.15ZM7.94 29.29C7.79 29.29 7.64 29.36 7.53 29.46C7.42 29.57 7.36 29.72 7.36 29.88C7.36 30.03 7.42 30.18 7.53 30.29C7.64 30.4 7.79 30.47 7.94 30.47C8.1 30.47 8.25 30.4 8.36 30.29C8.47 30.18 8.53 30.03 8.53 29.88C8.53 29.72 8.47 29.57 8.36 29.46C8.25 29.36 8.1 29.29 7.94 29.29ZM11.89 25.1L8.99 28C8.76 28.23 8.76 28.6 8.99 28.83C9.11 28.94 9.26 29 9.41 29C9.56 29 9.71 28.94 9.82 28.83L12.72 25.93C12.95 25.7 12.95 25.33 12.72 25.1C12.49 24.87 12.12 24.87 11.89 25.1ZM21.89 24.88L18.98 27.79C18.75 28.02 18.75 28.39 18.98 28.62C19.1 28.73 19.25 28.79 19.4 28.79C19.55 28.79 19.7 28.73 19.81 28.62L22.72 25.71C22.95 25.48 22.95 25.11 22.72 24.88C22.49 24.65 22.12 24.65 21.89 24.88ZM16.2 9.48C16.35 9.48 16.5 9.42 16.61 9.31C16.72 9.2 16.78 9.05 16.78 8.89C16.78 8.74 16.72 8.59 16.61 8.48C16.5 8.37 16.35 8.31 16.2 8.31C16.04 8.31 15.89 8.37 15.78 8.48C15.67 8.59 15.61 8.74 15.61 8.89C15.61 9.05 15.67 9.2 15.78 9.31C15.89 9.42 16.04 9.48 16.2 9.48Z" />
	</g>
</svg>