<svg xmlns="http://www.w3.org/2000/svg" viewBox="0 0 25 25" width="25" height="25">
	<style>
		tspan { white-space:pre }
		.shp0 { fill: #ffffff } 
	</style>
	<g id="Group 7">
		<g id="Group 8">
			<path id="Shape 13" class="shp0" d="M12.5 0C5.6 0 0 5.6 0 12.5C0 19.4 5.6 25 12.5 25C19.4 25 25 19.4 25 12.5C25 5.6 19.4 0 12.5 0L12.5 0ZM18.21 9.75C18.21 9.87 18.22 9.99 18.22 10.12C18.22 13.91 15.33 18.28 10.05 18.28L10.05 18.28L10.05 18.28C8.43 18.28 6.92 17.8 5.65 16.99C5.88 17.02 6.11 17.03 6.34 17.03C7.68 17.03 8.92 16.57 9.9 15.8C8.65 15.78 7.59 14.95 7.22 13.81C7.4 13.84 7.58 13.86 7.76 13.86C8.02 13.86 8.28 13.83 8.52 13.76C7.2 13.5 6.22 12.34 6.22 10.95C6.22 10.94 6.22 10.92 6.22 10.91C6.6 11.13 7.05 11.26 7.52 11.27C6.75 10.76 6.24 9.88 6.24 8.88C6.24 8.36 6.38 7.86 6.63 7.44C8.04 9.18 10.16 10.32 12.54 10.44C12.49 10.23 12.47 10.01 12.47 9.78C12.47 8.2 13.75 6.91 15.34 6.91C16.16 6.91 16.91 7.26 17.43 7.82C18.08 7.69 18.7 7.45 19.25 7.12C19.04 7.79 18.58 8.36 17.99 8.71C18.57 8.64 19.12 8.49 19.64 8.26C19.25 8.84 18.77 9.34 18.21 9.75L18.21 9.75ZM18.21 9.75" />
		</g>
	</g>
</svg>