<svg xmlns="http://www.w3.org/2000/svg" viewBox="0 0 25 25" width="25" height="25">
	<style>
		tspan { white-space:pre }
		.shp0 { fill: #ffffff } 
	</style>
	<g id="Group 7">
		<g id="Group 8">
			<path id="Shape 15" class="shp0" d="M10.94 14.84L15.01 12.5L10.94 10.16L10.94 14.84ZM10.94 14.84M12.5 0C5.6 0 0 5.6 0 12.5C0 19.4 5.6 25 12.5 25C19.4 25 25 19.4 25 12.5C25 5.6 19.4 0 12.5 0L12.5 0ZM20.31 12.51C20.31 12.51 20.31 15.05 19.99 16.27C19.81 16.94 19.28 17.47 18.61 17.65C17.39 17.97 12.5 17.97 12.5 17.97C12.5 17.97 7.62 17.97 6.39 17.63C5.72 17.45 5.19 16.93 5.01 16.26C4.69 15.05 4.69 12.5 4.69 12.5C4.69 12.5 4.69 9.96 5.01 8.74C5.19 8.07 5.73 7.53 6.39 7.35C7.61 7.03 12.5 7.03 12.5 7.03C12.5 7.03 17.39 7.03 18.61 7.37C19.28 7.55 19.81 8.07 19.99 8.74C20.32 9.96 20.31 12.51 20.31 12.51L20.31 12.51ZM20.31 12.51" />
		</g>
	</g>
</svg>